<svg id="레이어_1" data-name="레이어 1" xmlns="http://www.w3.org/2000/svg" xmlns:xlink="http://www.w3.org/1999/xlink" viewBox="0 0 27.25 25.47"><defs><linearGradient id="무제_그라디언트_29" x1="37.41" y1="27.64" x2="42.45" y2="27.64" gradientUnits="userSpaceOnUse"><stop offset="0" stop-color="#29abe2" stop-opacity="0.53"/><stop offset="0.15" stop-color="#4da3d9" stop-opacity="0.61"/><stop offset="0.57" stop-color="#ac8ec1" stop-opacity="0.82"/><stop offset="0.86" stop-color="#e880b2" stop-opacity="0.95"/><stop offset="1" stop-color="#ff7bac"/></linearGradient><linearGradient id="무제_그라디언트_29-2" x1="37.3" y1="44.11" x2="42.4" y2="44.11" xlink:href="#무제_그라디언트_29"/><linearGradient id="무제_그라디언트_13" x1="37.19" y1="35.74" x2="42.74" y2="35.74" gradientUnits="userSpaceOnUse"><stop offset="0" stop-color="#ff7bac"/><stop offset="0.52" stop-color="#7876b4" stop-opacity="0.75"/><stop offset="1" stop-color="#0071bc" stop-opacity="0.53"/></linearGradient><linearGradient id="무제_그라디언트_13-2" x1="22.37" y1="35.62" x2="27.49" y2="35.62" xlink:href="#무제_그라디언트_13"/><linearGradient id="무제_그라디언트_13-3" x1="28.94" y1="35.69" x2="35.35" y2="35.69" xlink:href="#무제_그라디언트_13"/><linearGradient id="무제_그라디언트_25" x1="44.39" y1="35.62" x2="49.63" y2="35.62" gradientUnits="userSpaceOnUse"><stop offset="0" stop-color="#ff7bac"/><stop offset="1" stop-color="#0071bc" stop-opacity="0.53"/></linearGradient></defs><path d="M39.68,31.49a1.28,1.28,0,1,1,.5,0,3.28,3.28,0,0,1,1.15.27,2.74,2.74,0,0,1,.42.21,2.52,2.52,0,0,0-1.2-4.18V23.27H39.31v4.52A2.51,2.51,0,0,0,38.15,32a2.49,2.49,0,0,1,.69-.35A2.85,2.85,0,0,1,39.68,31.49Z" transform="translate(-22.37 -23.27)" fill="url(#무제_그라디언트_29)"/><path d="M40,40a1.3,1.3,0,0,1-.17,2.58A1.3,1.3,0,0,1,39.66,40a4.34,4.34,0,0,1-1.47-.31L38,39.57a2.55,2.55,0,0,0,1.28,4.17v5h1.25v-5a2.55,2.55,0,0,0,1.19-4.26,3,3,0,0,1-.65.32A3.78,3.78,0,0,1,40,40Z" transform="translate(-22.37 -23.27)" fill="url(#무제_그라디언트_29-2)"/><path d="M42.61,36.76a2.13,2.13,0,0,0-.34-.61,2.29,2.29,0,0,0-.52-.46,3.91,3.91,0,0,0-.67-.36L40,34.87l-.49-.21a2.1,2.1,0,0,1-.42-.24.92.92,0,0,1-.29-.3.76.76,0,0,1-.1-.41A.83.83,0,0,1,39,33a1.56,1.56,0,0,1,.86-.25H40A2.52,2.52,0,0,0,41.75,32a2.74,2.74,0,0,0-.42-.21,3.28,3.28,0,0,0-1.15-.27l-.25,0-.25,0a2.85,2.85,0,0,0-.84.17,2.49,2.49,0,0,0-.69.35.86.86,0,0,0-.18.14,2.15,2.15,0,0,0-.78,1.64,2,2,0,0,0,.53,1.42,2.57,2.57,0,0,0,.53.45,3.11,3.11,0,0,0,.6.31l1.13.49c.18.08.35.15.5.23a2.61,2.61,0,0,1,.41.24,1,1,0,0,1,.26.31.94.94,0,0,1,.09.43.92.92,0,0,1-.36.76,1.6,1.6,0,0,1-1,.29h-.15a2.57,2.57,0,0,0-1.81.85l.24.11a4.34,4.34,0,0,0,1.47.31l.19,0L40,40a3.78,3.78,0,0,0,1-.19,3,3,0,0,0,.65-.32,1.86,1.86,0,0,0,.28-.21,2.3,2.3,0,0,0,.59-.77,2.33,2.33,0,0,0,.2-.94A2.39,2.39,0,0,0,42.61,36.76Z" transform="translate(-22.37 -23.27)" fill="url(#무제_그라디언트_13)"/><path d="M22.37,39.85V31.38h5.12v1.27H23.88v2.4H27v1.27H23.88v3.53Z" transform="translate(-22.37 -23.27)" fill="url(#무제_그라디언트_13-2)"/><path d="M32.15,40a3.66,3.66,0,0,1-1.32-.22,2.41,2.41,0,0,1-1-.68,3,3,0,0,1-.65-1.19,6.18,6.18,0,0,1-.23-1.79V31.38h1.5v4.87a4.26,4.26,0,0,0,.13,1.16,1.85,1.85,0,0,0,.35.76,1.38,1.38,0,0,0,.53.41,1.94,1.94,0,0,0,.7.12,2.09,2.09,0,0,0,.72-.12,1.37,1.37,0,0,0,.55-.41,2,2,0,0,0,.37-.76,4.75,4.75,0,0,0,.12-1.16V31.38h1.44v4.75a6.21,6.21,0,0,1-.22,1.79,3,3,0,0,1-.64,1.19,2.48,2.48,0,0,1-1,.68A3.67,3.67,0,0,1,32.15,40Z" transform="translate(-22.37 -23.27)" fill="url(#무제_그라디언트_13-3)"/><path d="M44.39,39.85V31.38H49.5v1.27H45.9v2.16h3v1.27h-3v2.5h3.73v1.27Z" transform="translate(-22.37 -23.27)" fill="url(#무제_그라디언트_25)"/></svg>